<?xml version="1.0" encoding="iso-8859-1"?>
<!-- Generator: Adobe Illustrator 18.0.0, SVG Export Plug-In . SVG Version: 6.00 Build 0)  -->
<!DOCTYPE svg PUBLIC "-//W3C//DTD SVG 1.1//EN" "http://www.w3.org/Graphics/SVG/1.1/DTD/svg11.dtd">
<svg version="1.1" id="Capa_1" xmlns="http://www.w3.org/2000/svg" xmlns:xlink="http://www.w3.org/1999/xlink" x="0px" y="0px"
	 viewBox="0 0 422.43 422.43" style="enable-background:new 0 0 422.43 422.43;" xml:space="preserve">
<path d="M417.93,3.639H4.5c-2.485,0-4.5,2.015-4.5,4.5v29.274c0,2.485,2.015,4.5,4.5,4.5h8.13
	c12.866,102.058-0.535,190.489-0.535,190.489V414.29c0,1.288,0.552,2.515,1.516,3.368c0.828,0.733,1.891,1.132,2.984,1.132
	c0.18,0,0.362-0.011,0.543-0.033c1.891-0.229,46.567-6.369,69.105-70.492c0.297-0.847,0.335-1.763,0.108-2.631
	c-15.099-57.749-25.674-96.287-28.716-107.302c33.989-21.988,60.824-63.161,77.727-119.351
	c6.689-22.237,10.628-42.644,12.893-57.452c10.864,20.308,34.992,34.472,62.96,34.472c27.969,0,52.096-14.166,62.959-34.475
	c2.265,14.814,6.202,35.218,12.891,57.455c16.904,56.19,43.738,97.362,77.728,119.351c-3.043,11.015-13.618,49.553-28.716,107.302
	c-0.227,0.868-0.189,1.784,0.108,2.631c22.537,64.123,67.215,70.263,69.105,70.492c0.182,0.022,0.363,0.033,0.543,0.033
	c1.093,0,2.156-0.398,2.984-1.132c0.964-0.854,1.516-2.08,1.516-3.368V232.403h-0.017c-0.001-0.332-13.394-88.395-0.522-190.489
	h8.135c2.485,0,4.5-2.015,4.5-4.5V8.139C422.43,5.654,420.415,3.639,417.93,3.639z M21.095,408.602V254.428
	c1.782,1.486,3.886,3.006,6.321,4.455l8.998,142.642C30.232,405.355,24.793,407.469,21.095,408.602z M24.742,70.511
	c6.987,8.625,16.619,15.59,27.902,20.046c-4.401,76.512-20.774,119.01-27.022,132.725c-0.931-0.988-1.822-2.078-2.653-3.295
	C26.191,195.044,30.967,141.154,24.742,70.511z M61.489,93.434c6.395,1.663,13.178,2.567,20.209,2.567
	c4.008,0,7.935-0.3,11.758-0.858c-6.142,51.184-20.672,85.34-32.006,105.204c-9.977,17.486-19.218,27.149-22.804,30.557
	c-1.833-0.493-3.734-1.179-5.621-2.124C39.076,216.229,56.591,173.691,61.489,93.434z M47.732,241.102
	c0.47,0,0.906-0.009,1.325-0.021c0.919,3.329,2.466,8.957,4.561,16.65c-20.993-1.827-30.231-12.992-32.524-16.3v-8.674
	c0.056-0.331,0.118-0.704,0.183-1.1C30.273,239.725,41.285,241.102,47.732,241.102z M45.039,395.306l-8.33-132.057
	c1.329,0.477,2.729,0.915,4.187,1.317l21.528,111.484C56.616,384.487,50.563,390.727,45.039,395.306z M77.293,346.569
	c-2.418,6.691-5.095,12.661-7.923,17.992l-18.948-98.127c1.821,0.221,3.71,0.385,5.688,0.471
	C61.185,285.644,68.448,312.756,77.293,346.569z M126.744,116.389C115.15,154.927,92.58,206.127,50.85,231.958
	c-0.206,0.021-0.447,0.04-0.721,0.06c13.953-15.518,43.456-57.119,52.609-138.797c13.99-3.801,26.044-11.289,34.585-21.105
	C134.993,84.901,131.609,100.217,126.744,116.389z M81.698,87.001c-31.304,0-57.082-19.847-59.849-45.088h11.929
	c2.8,19.15,23.215,34.061,47.919,34.061c24.703,0,45.118-14.911,47.918-34.061h11.929C138.778,67.155,113.001,87.001,81.698,87.001z
	 M81.697,58.513c12.351,0,22.699-7.12,25.231-16.6h13.573c-2.887,14.172-19.188,25.061-38.803,25.061
	c-19.616,0-35.918-10.889-38.805-25.061h13.58C59.003,51.393,69.347,58.513,81.697,58.513z M66.166,41.913h31.094
	c-2.542,4.405-8.641,7.6-15.563,7.6C74.779,49.513,68.705,46.317,66.166,41.913z M211.215,87.001
	c-31.304,0-57.082-19.847-59.849-45.088h11.929c2.8,19.15,23.215,34.061,47.919,34.061c24.703,0,45.118-14.911,47.917-34.061h11.929
	C268.295,67.155,242.518,87.001,211.215,87.001z M211.214,58.513c12.351,0,22.699-7.12,25.231-16.6h13.573
	c-2.887,14.172-19.188,25.061-38.803,25.061c-19.616,0-35.918-10.889-38.805-25.061h13.575
	C188.516,51.393,198.864,58.513,211.214,58.513z M195.652,41.913h31.125c-2.542,4.405-8.641,7.6-15.563,7.6
	C204.292,49.513,198.194,46.319,195.652,41.913z M340.73,58.513c12.351,0,22.699-7.12,25.23-16.6h13.575
	c-2.887,14.172-19.189,25.061-38.806,25.061c-19.615,0-35.916-10.889-38.803-25.061H315.5
	C318.032,51.393,328.38,58.513,340.73,58.513z M325.168,41.913h31.125c-2.543,4.405-8.641,7.6-15.563,7.6
	C333.809,49.513,327.71,46.319,325.168,41.913z M340.729,75.974c24.705,0,45.12-14.911,47.919-34.061h11.911
	c-2.768,25.239-28.528,45.088-59.83,45.088c-31.303,0-57.08-19.847-59.847-45.088h11.929
	C295.612,61.063,316.026,75.974,340.729,75.974z M401.334,241.43c-2.297,3.309-11.537,14.47-32.522,16.297
	c2.094-7.691,3.641-13.318,4.56-16.646c0.419,0.013,0.855,0.021,1.325,0.021c6.448,0,17.457-1.391,26.452-9.457
	c0.066,0.401,0.129,0.777,0.185,1.113V241.43z M399.455,219.966c-0.835,1.225-1.724,2.331-2.657,3.325
	c-6.248-13.656-22.602-55.991-27.015-132.733c11.28-4.453,20.91-11.413,27.899-20.032
	C391.457,141.156,396.23,195.018,399.455,219.966z M389.414,228.801c-1.881,0.948-3.776,1.637-5.604,2.13
	c-7.925-7.526-44.119-46.336-54.837-135.788c3.823,0.559,7.749,0.858,11.757,0.858c7.03,0,13.813-0.904,20.208-2.566
	C365.838,173.741,383.372,216.28,389.414,228.801z M295.737,116.566c-4.889-16.222-8.288-31.603-10.627-44.444
	c8.54,9.814,20.593,17.301,34.581,21.101c9.154,81.69,38.666,123.292,52.616,138.803c-0.277-0.021-0.513-0.042-0.723-0.064
	C329.896,206.162,307.333,155.042,295.737,116.566z M366.317,266.912c1.971-0.085,3.868-0.237,5.684-0.456l-18.944,98.11
	c-2.835-5.353-5.509-11.315-7.921-17.996C353.979,312.76,361.243,285.651,366.317,266.912z M360.003,376.063l21.523-111.467
	c1.464-0.405,2.857-0.854,4.191-1.334l-8.328,132.018C371.66,390.547,365.67,384.29,360.003,376.063z M386.016,401.497
	l8.995-142.593c2.439-1.451,4.538-2.976,6.323-4.462v154.167C397.649,407.478,392.223,405.352,386.016,401.497z M413.43,32.913H9
	V12.639h404.43V32.913z"/>
<g>
</g>
<g>
</g>
<g>
</g>
<g>
</g>
<g>
</g>
<g>
</g>
<g>
</g>
<g>
</g>
<g>
</g>
<g>
</g>
<g>
</g>
<g>
</g>
<g>
</g>
<g>
</g>
<g>
</g>
</svg>
