<?xml version="1.0" encoding="iso-8859-1"?>
<!-- Generator: Adobe Illustrator 19.0.0, SVG Export Plug-In . SVG Version: 6.00 Build 0)  -->
<svg version="1.1" id="Layer_1" xmlns="http://www.w3.org/2000/svg" xmlns:xlink="http://www.w3.org/1999/xlink" x="0px" y="0px"
	 viewBox="0 0 512 512" style="enable-background:new 0 0 512 512;" xml:space="preserve">
<circle style="fill:#E1EFFA;" cx="256" cy="256" r="256"/>
<path style="fill:#BCD4E8;" d="M289.093,100.572h-6.067c0,7.606-0.773,20.114-2.522,26.511c-1.769,6.508-4.227,12.669-7.163,17.818
	l-44.334-44.329h-6.106c0,10.898,0.218,21.356-4.941,24.722c-10.604,6.909-21.868,18.688-21.868,33.754
	c0,8.998,6.029,15.616,12.723,34.127c3.077,8.553,6.441,19.74,7.575,28.703h-0.038c0.148,0.991,0.218,1.938,0.33,2.89
	c0.069,0.952,0.113,1.828,0.113,2.708h-0.044c0,0-0.036,0.11-0.105,0.33c-0.22,0.584-0.765,1.974-1.574,4.019l0.028,0.028
	c-0.156,0.392-0.294,0.776-0.463,1.219c-8.855,22.999-43.305,111.209-69.233,154.22c0.33,1.098,0.842,2.158,1.539,3.218l5.524,5.519
	l115.661,115.666c115.231-5.373,210.486-86.925,236.674-195.441L289.093,100.572z"/>
<path style="fill:#0684BA;" d="M294.036,125.279c-5.148-3.356-4.931-13.801-4.931-24.707c-2.429,0-4.152,0-6.09,0
	c0,7.603-0.773,20.122-2.514,26.519c-4.682,17.226-14.2,32.033-24.502,32.033c-10.299,0-19.814-14.804-24.504-32.033
	c-1.746-6.397-2.506-18.916-2.506-26.519c-1.948,0-3.663,0-6.093,0c0,10.906,0.218,21.35-4.931,24.707
	c-10.606,6.912-21.857,18.711-21.857,33.761c0,8.988,6.019,15.619,12.698,34.132c3.771,10.442,7.964,24.886,7.964,34.286
	c0.049,0,0.148,0,0.212,0l-0.015,0.003c11.702,1.69,24.968,2.665,39.032,2.665c14.06,0,27.333-0.975,39.027-2.665l-0.008-0.003
	c0.061,0,0.161,0,0.21,0c0-9.4,4.196-23.844,7.964-34.286c6.679-18.514,12.698-25.144,12.698-34.132
	C315.894,143.987,304.635,132.188,294.036,125.279z"/>
<path style="fill:#0575A5;" d="M295.224,227.459h-0.189c-11.694,1.692-24.96,2.662-39.035,2.662c-14.077,0-27.338-0.97-39.032-2.662
	h-0.197c0,0-41.377,110.131-71.368,159.821c2.345,7.744,13.827,14.546,27.3,15.598c10.24,0.799,17.157-1.006,22.833,0.241
	c13.368,2.921,11.843,8.315,28.598,8.315c13.942,0,18.043-6.093,31.867-6.093c13.827,0,17.928,6.093,31.869,6.093
	c16.75,0,15.227-5.394,28.6-8.315c5.676-1.244,12.593,0.558,22.833-0.241c13.471-1.052,24.952-7.852,27.297-15.598
	C336.604,337.587,295.224,227.459,295.224,227.459z"/>
<g>
	<path style="fill:#FFFFFF;" d="M245.358,227.459c0,0-29.184,34.877-27.389,71.91c9.603-18.547,12.073,5.65,23.219,3.855
		c-6.208-31.16-0.904-57.951,5.921-74.235C246.938,228.434,245.358,227.459,245.358,227.459z"/>
	<path style="fill:#FFFFFF;" d="M245.745,227.487c0,0,16.732,20.009,15.713,41.252c-5.509-10.637-6.932,3.233-13.325,2.199
		c3.561-17.866,0.522-33.226-3.392-42.565C244.831,228.052,245.745,227.487,245.745,227.487z"/>
</g>
<path style="fill:#E1EFFA;" d="M295.224,227.459c0-1.71,0.182-3.63,0.435-5.624h-0.625l-0.806,0.061
	c-23.473,3.4-52.972,3.4-76.449,0l-1.426-0.013c0.248,1.976,0.422,3.881,0.422,5.576c0,0-0.768,2.051-2.135,5.627h1.93
	c12.319,1.761,25.59,2.655,39.432,2.655c13.85,0,27.113-0.893,39.434-2.655h1.93C295.997,229.509,295.224,227.459,295.224,227.459z"
	/>
<g>
</g>
<g>
</g>
<g>
</g>
<g>
</g>
<g>
</g>
<g>
</g>
<g>
</g>
<g>
</g>
<g>
</g>
<g>
</g>
<g>
</g>
<g>
</g>
<g>
</g>
<g>
</g>
<g>
</g>
</svg>
